<svg width="24" height="24" viewBox="0 0 24 24" fill="none" xmlns="http://www.w3.org/2000/svg">
<g id="icon_note">
<g id="vector">
<path fill-rule="evenodd" clip-rule="evenodd" d="M2.19995 5.0002C2.19995 3.4538 3.45355 2.2002 4.99995 2.2002H19C20.5463 2.2002 21.7999 3.4538 21.7999 5.0002V19.0002C21.7999 20.5466 20.5463 21.8002 19 21.8002H4.99995C3.45355 21.8002 2.19995 20.5466 2.19995 19.0002V5.0002ZM4.99995 3.8002C4.33721 3.8002 3.79995 4.33745 3.79995 5.0002V19.0002C3.79995 19.6629 4.33721 20.2002 4.99995 20.2002H19C19.6627 20.2002 20.2 19.6629 20.2 19.0002V5.0002C20.2 4.33745 19.6627 3.8002 19 3.8002H4.99995Z" fill="#212124"/>
<path fill-rule="evenodd" clip-rule="evenodd" d="M7.19995 8.0002C7.19995 7.55837 7.55812 7.2002 7.99995 7.2002H16C16.4418 7.2002 16.8 7.55837 16.8 8.0002C16.8 8.44202 16.4418 8.8002 16 8.8002H7.99995C7.55812 8.8002 7.19995 8.44202 7.19995 8.0002Z" fill="#212124"/>
<path fill-rule="evenodd" clip-rule="evenodd" d="M7.19995 12.0002C7.19995 11.5584 7.55812 11.2002 7.99995 11.2002H16C16.4418 11.2002 16.8 11.5584 16.8 12.0002C16.8 12.442 16.4418 12.8002 16 12.8002H7.99995C7.55812 12.8002 7.19995 12.442 7.19995 12.0002Z" fill="#212124"/>
<path fill-rule="evenodd" clip-rule="evenodd" d="M7.19995 16.0002C7.19995 15.5584 7.55812 15.2002 7.99995 15.2002H16C16.4418 15.2002 16.8 15.5584 16.8 16.0002C16.8 16.442 16.4418 16.8002 16 16.8002H7.99995C7.55812 16.8002 7.19995 16.442 7.19995 16.0002Z" fill="#212124"/>
</g>
</g>
</svg>
