<svg width="25" height="24" viewBox="0 0 25 24" fill="none" xmlns="http://www.w3.org/2000/svg">
<g id="icon_chatting">
<g id="vector">
<path d="M18.5 9.49998C18.5 13 14.9 15.9 10.5 15.9C8.34973 17.8352 6.19946 18.3834 5.15387 18.5386C4.92649 18.5724 4.78999 18.2869 4.92905 18.1038C5.29608 17.6207 5.86468 16.7439 6.5 15.3C4.1 14.2 2.5 11.9 2.5 9.49998C2.5 5.99998 6.1 3.09998 10.5 3.09998C14.9 3.09998 18.5 5.99998 18.5 9.49998Z" fill="white"/>
<path d="M19.3508 6.71551C19.1403 6.58709 18.9031 6.82769 18.9997 7.05453C19.3225 7.81246 19.5001 8.63342 19.5001 9.49993C19.5001 13.6113 15.5032 16.6972 10.9528 16.8903C10.9079 16.8922 10.8646 16.9089 10.8302 16.9378L10.7813 16.9787C10.638 17.0978 10.6641 17.3269 10.8363 17.3984C11.9365 17.8546 13.1692 18.0999 14.5 18.0999C16.6686 20.0516 18.8371 20.6447 19.8726 20.8236C20.096 20.8622 20.2339 20.5929 20.0989 20.4107C19.7331 19.917 19.1517 19.0217 18.5 17.5999C20.9 16.4999 22.5 14.1999 22.5 11.7999C22.5 9.70674 21.2498 7.87408 19.3508 6.71551Z" fill="white"/>
</g>
</g>
</svg>
