<svg width="28" height="28" viewBox="0 0 28 28" fill="none" xmlns="http://www.w3.org/2000/svg">
<g id="icon_thumb_up">
<g id="vector">
<path d="M18.9292 7.34604C19.2432 6.48065 19.1607 5.54624 18.9263 4.74024C18.6888 3.9238 18.2679 3.13933 17.7709 2.51079C17.2939 1.90757 16.649 1.32555 15.9066 1.09871C15.5134 0.978597 15.0493 0.946987 14.5857 1.12462C14.1189 1.30348 13.7752 1.64753 13.5402 2.05534C13.5271 2.07805 13.5148 2.10124 13.5035 2.12487C11.465 6.3806 9.44403 9.23672 8.30324 10.6099C8.22745 10.7011 8.18536 10.8154 8.18536 10.934V26.5C8.18536 26.7761 8.40922 27 8.68537 27H18.5818C20.4684 27 21.6643 26.5799 22.502 25.7471C24.2602 23.9992 25.4011 21.155 26.1556 18.6877C26.5731 17.3225 27.0303 15.5407 26.9984 13.9432C26.9823 13.138 26.8417 12.3025 26.4453 11.5724C26.0332 10.8133 25.3718 10.2216 24.439 9.90929C24.2196 9.83582 24.0033 9.78628 23.8 9.76101C23.7569 9.75565 23.7135 9.75296 23.67 9.75296H17.7267L18.8811 7.45771C18.8993 7.42145 18.9154 7.38416 18.9292 7.34604Z" fill="#00AEE4"/>
<path d="M5.41033 27C5.82455 27 6.16033 26.6642 6.16033 26.25V11.7675C6.16033 11.3533 5.82455 11.0175 5.41033 11.0175H2.04514C1.46793 11.0175 1 11.4813 1 12.0536V25.9639C1 26.5361 1.46793 27 2.04514 27H5.41033Z" fill="#00AEE4"/>
</g>
</g>
</svg>
