<svg width="26" height="26" viewBox="0 0 26 26" fill="none" xmlns="http://www.w3.org/2000/svg">
<path d="M13 7.69384C13.4884 7.69384 13.8844 8.08978 13.8844 8.57819V13.5527C13.8844 14.0411 13.4884 14.437 13 14.437C12.5116 14.437 12.1157 14.0411 12.1157 13.5527V8.57819C12.1157 8.08978 12.5116 7.69384 13 7.69384Z" fill="#DEE2E6"/>
<path d="M14.1052 17.4217C14.1052 18.0322 13.6103 18.5272 12.9998 18.5272C12.3893 18.5272 11.8943 18.0322 11.8943 17.4217C11.8943 16.8112 12.3893 16.3163 12.9998 16.3163C13.6103 16.3163 14.1052 16.8112 14.1052 17.4217Z" fill="#DEE2E6"/>
<path fill-rule="evenodd" clip-rule="evenodd" d="M2.16667 13C2.16667 7.01688 7.01692 2.16663 13 2.16663C18.9831 2.16663 23.8333 7.01688 23.8333 13C23.8333 18.983 18.9831 23.8333 13 23.8333C7.01692 23.8333 2.16667 18.983 2.16667 13ZM13 3.93533C7.99375 3.93533 3.93538 7.99371 3.93538 13C3.93538 18.0062 7.99375 22.0646 13 22.0646C18.0063 22.0646 22.0646 18.0062 22.0646 13C22.0646 7.99371 18.0063 3.93533 13 3.93533Z" fill="#DEE2E6"/>
</svg>
