<svg width="22" height="24" viewBox="0 0 22 24" fill="none" xmlns="http://www.w3.org/2000/svg">
<g filter="url(#filter0_d_14_5400)">
<path d="M11 5.23474C11.3006 5.23474 11.5442 5.47839 11.5442 5.77895V8.84018C11.5442 9.14074 11.3006 9.3844 11 9.3844C10.6994 9.3844 10.4558 9.14074 10.4558 8.84018V5.77895C10.4558 5.47839 10.6994 5.23474 11 5.23474Z" fill="white"/>
<path d="M11.6802 11.2211C11.6802 11.5968 11.3756 11.9014 10.9999 11.9014C10.6242 11.9014 10.3196 11.5968 10.3196 11.2211C10.3196 10.8454 10.6242 10.5409 10.9999 10.5409C11.3756 10.5409 11.6802 10.8454 11.6802 11.2211Z" fill="white"/>
<path fill-rule="evenodd" clip-rule="evenodd" d="M4.33334 8.50004C4.33334 4.81814 7.31811 1.83337 11 1.83337C14.6819 1.83337 17.6667 4.81814 17.6667 8.50004C17.6667 12.1819 14.6819 15.1667 11 15.1667C7.31811 15.1667 4.33334 12.1819 4.33334 8.50004ZM11 2.92181C7.91924 2.92181 5.42178 5.41927 5.42178 8.50004C5.42178 11.5808 7.91924 14.0783 11 14.0783C14.0808 14.0783 16.5782 11.5808 16.5782 8.50004C16.5782 5.41927 14.0808 2.92181 11 2.92181Z" fill="white"/>
</g>
<defs>
<filter id="filter0_d_14_5400" x="0.333344" y="1.83337" width="21.3333" height="21.3334" filterUnits="userSpaceOnUse" color-interpolation-filters="sRGB">
<feFlood flood-opacity="0" result="BackgroundImageFix"/>
<feColorMatrix in="SourceAlpha" type="matrix" values="0 0 0 0 0 0 0 0 0 0 0 0 0 0 0 0 0 0 127 0" result="hardAlpha"/>
<feOffset dy="4"/>
<feGaussianBlur stdDeviation="2"/>
<feComposite in2="hardAlpha" operator="out"/>
<feColorMatrix type="matrix" values="0 0 0 0 0 0 0 0 0 0 0 0 0 0 0 0 0 0 0.25 0"/>
<feBlend mode="normal" in2="BackgroundImageFix" result="effect1_dropShadow_14_5400"/>
<feBlend mode="normal" in="SourceGraphic" in2="effect1_dropShadow_14_5400" result="shape"/>
</filter>
</defs>
</svg>
